<?xml version="1.0" standalone="no"?>
<!DOCTYPE svg PUBLIC "-//W3C//DTD SVG 20010904//EN"
 "http://www.w3.org/TR/2001/REC-SVG-20010904/DTD/svg10.dtd">
<svg version="1.0" xmlns="http://www.w3.org/2000/svg"
 width="500.000000pt" height="500.000000pt" viewBox="0 0 500.000000 500.000000"
 preserveAspectRatio="xMidYMid meet">

<g transform="translate(0.000000,500.000000) scale(0.100000,-0.100000)"
fill="#000000" stroke="none">
<path d="M0 2500 l0 -2500 2500 0 2500 0 0 2500 0 2500 -2500 0 -2500 0 0
-2500z m2890 2416 c206 -36 326 -68 500 -134 96 -36 291 -131 365 -177 22 -13
54 -32 70 -41 17 -9 32 -20 35 -23 3 -3 41 -30 85 -60 44 -30 82 -57 85 -61 3
-3 41 -35 85 -71 250 -207 509 -560 640 -874 58 -138 97 -252 129 -380 23 -95
33 -143 56 -296 13 -87 13 -523 -1 -624 -23 -174 -88 -448 -129 -540 -5 -11
-29 -69 -55 -130 -25 -60 -69 -150 -97 -200 -48 -86 -155 -254 -168 -265 -3
-3 -17 -21 -30 -40 -73 -107 -247 -290 -375 -396 -109 -90 -254 -191 -358
-248 -37 -20 -82 -45 -100 -54 -26 -15 -160 -75 -272 -122 -108 -46 -336 -100
-542 -130 -93 -13 -537 -13 -622 0 -171 26 -212 34 -301 57 -178 45 -336 106
-517 198 -105 54 -330 195 -366 229 -7 6 -34 28 -62 48 -65 48 -307 294 -372
378 -115 150 -233 341 -294 477 -16 37 -36 81 -44 97 -52 112 -113 313 -144
471 -32 163 -36 222 -36 485 0 273 4 322 42 510 37 184 130 452 203 585 9 17
34 62 54 100 50 93 154 251 223 339 75 96 310 328 408 403 388 295 813 463
1280 507 95 9 544 -4 625 -18z"/>
<path d="M2334 4899 c-530 -38 -1029 -248 -1432 -602 -236 -207 -415 -442
-561 -737 -343 -693 -340 -1465 8 -2160 121 -241 251 -420 451 -620 235 -235
481 -399 788 -525 312 -128 569 -178 912 -178 394 -1 707 72 1065 247 273 134
457 268 670 488 528 543 766 1280 655 2033 -111 757 -581 1420 -1261 1779
-313 165 -607 248 -974 276 -153 11 -159 11 -321 -1z m-1344 -1677 l0 -147
-31 -38 c-29 -35 -33 -37 -48 -23 -16 14 -21 11 -67 -37 -91 -95 -99 -106 -86
-119 8 -8 21 0 51 32 22 24 43 41 46 38 5 -5 -88 -121 -277 -346 -39 -46 -74
-80 -78 -75 -37 40 -110 134 -110 142 0 6 106 137 236 293 131 156 264 316
297 356 33 39 61 72 63 72 2 0 4 -66 4 -148z m216 -57 c82 -99 155 -188 162
-197 11 -13 7 -25 -24 -77 -34 -58 -38 -61 -75 -61 -36 0 -42 5 -138 119
l-101 120 0 153 c0 128 2 150 14 138 7 -8 80 -96 162 -195z m1957 -362 c20 -8
37 -17 37 -20 0 -12 -32 -63 -39 -63 -5 0 -25 7 -44 15 -46 19 -82 19 -101 0
-29 -30 -12 -44 93 -76 56 -17 97 -51 104 -85 13 -70 -40 -138 -117 -149 -51
-8 -141 14 -176 43 -23 19 -23 19 -4 45 21 30 40 33 67 12 32 -23 94 -29 122
-11 38 25 18 48 -63 74 -87 28 -119 53 -128 98 -21 113 106 173 249 117z
m-1592 -69 c32 -38 59 -75 59 -82 0 -16 -111 -154 -120 -150 -7 3 -98 109
-164 191 -35 42 -38 50 -28 72 10 22 18 25 67 25 36 0 62 5 71 15 23 22 50 6
115 -71z m793 72 c67 -28 85 -92 40 -145 -14 -17 -21 -31 -14 -31 6 0 22 -11
35 -25 45 -44 25 -130 -37 -156 -22 -9 -73 -14 -153 -14 l-120 0 -3 193 -2
192 110 0 c72 0 122 -5 144 -14z m400 -84 c22 -53 57 -136 78 -183 21 -48 38
-92 38 -98 0 -8 -16 -11 -47 -9 -43 3 -47 5 -58 38 l-12 35 -85 3 -86 3 -16
-41 c-15 -38 -18 -40 -61 -40 -25 0 -45 2 -45 5 0 3 36 91 81 195 l81 190 47
0 46 0 39 -98z m685 -9 l53 -108 54 108 54 107 60 0 60 0 0 -172 c0 -216 -1
-218 -51 -218 l-39 0 0 122 c0 67 -3 118 -7 114 -5 -4 -31 -48 -58 -99 -42
-77 -54 -92 -75 -92 -21 0 -32 15 -75 97 l-50 98 -5 -118 -5 -117 -42 -3 -43
-3 0 195 0 196 58 0 57 0 54 -107z m592 80 c5 -16 41 -100 78 -188 38 -88 67
-163 64 -167 -2 -5 -24 -8 -48 -8 -41 0 -44 2 -59 40 l-16 40 -81 0 -81 0 -15
-40 c-15 -38 -18 -40 -60 -40 -30 0 -43 4 -43 14 0 8 32 90 71 183 39 92 73
174 76 181 3 7 24 12 55 12 44 0 50 -3 59 -27z m358 -84 l86 -107 3 109 3 109
44 0 45 0 0 -196 0 -195 -37 3 c-35 3 -45 12 -128 115 l-90 112 -3 -115 -3
-114 -44 0 -45 0 0 196 0 195 42 -3 c40 -3 45 -8 127 -109z m-3265 15 c17 -25
16 -26 -16 -64 l-33 -38 -87 -1 c-51 -1 -90 -6 -94 -12 -6 -11 -64 37 -64 54
0 4 15 26 33 47 l32 40 106 0 c104 0 107 -1 123 -26z m121 -146 c28 -34 56
-69 62 -79 11 -15 -2 -35 -95 -150 l-108 -134 -103 -3 c-98 -3 -104 -2 -120
20 -8 13 -30 39 -48 59 -18 20 -33 43 -33 50 0 8 14 29 31 47 l30 33 22 -27
c12 -15 27 -34 32 -41 6 -7 41 -15 81 -19 l71 -5 54 68 c76 94 74 88 40 130
-16 20 -27 42 -23 48 15 24 47 64 52 65 3 0 28 -28 55 -62z m-415 -46 c0 -9
-18 -40 -41 -70 l-41 -54 -34 33 c-19 18 -34 37 -34 42 0 4 21 33 47 63 l47
54 28 -27 c15 -15 28 -33 28 -41z m239 -19 l21 -26 -24 -31 c-18 -24 -32 -32
-64 -34 -35 -3 -43 1 -61 27 -25 35 -26 49 -4 73 11 13 30 18 64 18 40 0 51
-4 68 -27z m-491 -134 c43 -53 67 -90 61 -96 -12 -12 57 -93 81 -93 28 0 32
-29 9 -61 -19 -28 -24 -29 -98 -29 l-78 0 -64 77 c-87 105 -109 135 -109 148
0 14 111 146 121 143 4 -2 39 -42 77 -89z m986 24 c31 -37 56 -74 56 -83 0 -8
-10 -26 -23 -40 -36 -40 -339 -402 -461 -552 -61 -75 -113 -137 -116 -137 -5
-1 -6 144 -2 254 2 53 8 62 173 256 25 30 103 125 174 212 70 86 131 157 136
157 4 0 33 -30 63 -67z m853 -158 c35 -24 16 -41 -28 -26 -44 15 -84 14 -99
-4 -24 -29 -7 -49 60 -73 99 -34 125 -82 76 -135 -33 -35 -85 -44 -141 -22
-49 18 -60 29 -51 50 4 11 14 10 55 -8 62 -26 104 -17 109 24 3 27 -12 38 -83
60 -55 16 -75 36 -75 76 0 72 104 106 177 58z m317 19 c65 -9 63 -34 -4 -34
l-50 0 0 -125 c0 -118 -1 -125 -20 -125 -19 0 -20 7 -20 125 l0 125 -50 0
c-37 0 -50 4 -50 14 0 21 108 31 194 20z m196 -108 c4 -92 8 -110 24 -122 34
-24 82 -21 111 7 17 17 21 35 23 125 3 91 6 105 20 102 14 -3 17 -19 20 -103
2 -86 -1 -105 -18 -133 -43 -70 -136 -80 -192 -20 -27 29 -28 33 -28 137 0 59
3 111 7 115 20 19 28 -9 33 -108z m502 104 c20 -6 50 -26 67 -46 60 -67 34
-186 -47 -221 -36 -16 -144 -25 -169 -16 -10 4 -13 42 -13 142 0 76 3 141 7
144 10 11 113 8 155 -3z m276 -136 c2 -134 1 -142 -17 -147 -11 -3 -22 -2 -25
1 -9 8 -7 277 1 286 4 4 14 5 23 4 12 -3 15 -26 18 -144z m342 128 c49 -24 80
-75 80 -131 0 -60 -28 -104 -81 -132 -100 -50 -209 18 -209 131 0 113 111 182
210 132z m365 4 c40 -17 50 -52 13 -43 -67 17 -80 19 -102 13 -26 -6 -39 -28
-30 -51 3 -8 32 -22 64 -31 73 -20 100 -44 100 -88 0 -72 -88 -106 -173 -66
-50 24 -55 31 -34 49 10 8 19 7 33 -4 26 -20 108 -19 125 1 21 25 -1 46 -72
71 -87 30 -110 68 -73 121 29 42 89 53 149 28z m-3511 -271 l77 -95 -3 -149
-3 -149 -145 174 c-80 96 -147 182 -148 190 -2 8 11 40 29 70 32 52 35 54 75
54 41 0 44 -2 118 -95z"/>
<path d="M2200 2710 l0 -41 61 3 c47 2 65 7 73 21 18 29 -24 57 -85 57 l-49 0
0 -40z"/>
<path d="M2204 2586 c-3 -8 -4 -29 -2 -47 l3 -33 64 2 c66 1 91 13 91 42 0 27
-20 37 -88 44 -49 4 -64 3 -68 -8z"/>
<path d="M2652 2668 c-11 -29 -23 -61 -27 -70 -6 -16 0 -18 50 -18 50 0 56 2
50 18 -4 9 -16 41 -27 70 -11 28 -21 52 -22 52 -2 0 -12 -24 -24 -52z"/>
<path d="M3956 2657 c-10 -29 -21 -58 -23 -64 -4 -10 9 -13 47 -13 46 0 51 2
45 18 -4 9 -14 36 -22 59 -8 24 -18 45 -22 47 -4 3 -15 -19 -25 -47z"/>
<path d="M1250 2130 c-56 -66 -76 -107 -48 -98 21 7 139 148 133 158 -12 19
-24 10 -85 -60z"/>
<path d="M3330 2126 l0 -106 45 0 c60 0 91 16 111 58 35 74 -11 141 -105 150
l-51 5 0 -107z"/>
<path d="M3931 2204 c-36 -30 -49 -81 -31 -125 17 -41 47 -59 98 -59 33 0 48
6 66 25 48 52 37 139 -23 169 -43 23 -75 20 -110 -10z"/>
</g>
</svg>
