<?xml version="1.0" standalone="no"?>
<!DOCTYPE svg PUBLIC "-//W3C//DTD SVG 20010904//EN"
 "http://www.w3.org/TR/2001/REC-SVG-20010904/DTD/svg10.dtd">
<svg version="1.0" xmlns="http://www.w3.org/2000/svg"
 width="500.000000pt" height="500.000000pt" viewBox="0 0 500.000000 500.000000"
 preserveAspectRatio="xMidYMid meet">

<g transform="translate(0.000000,500.000000) scale(0.100000,-0.100000)"
fill="#000000" stroke="none">
<path d="M0 2500 l0 -2500 2500 0 2500 0 0 2500 0 2500 -2500 0 -2500 0 0
-2500z m2767 2345 c330 -44 631 -147 908 -312 400 -238 707 -572 910 -988 114
-233 184 -458 222 -714 21 -144 24 -474 5 -611 -97 -694 -460 -1283 -1027
-1665 -575 -386 -1301 -499 -1972 -305 -389 112 -761 340 -1046 640 -333 350
-547 790 -624 1280 -22 142 -25 508 -5 645 111 769 561 1416 1232 1773 261
139 542 225 865 265 88 11 424 6 532 -8z"/>
<path d="M2165 4681 c-16 -16 -34 -27 -41 -24 -14 5 -34 -26 -34 -53 0 -9 -15
-40 -32 -68 -31 -48 -33 -56 -34 -146 -1 -116 7 -141 56 -175 37 -26 60 -67
60 -107 0 -10 -17 -35 -38 -56 -22 -20 -43 -44 -48 -53 -5 -9 -38 -35 -74 -57
-63 -41 -65 -41 -79 -22 -17 25 -37 25 -53 1 -11 -18 -14 -16 -38 22 -29 45
-89 102 -125 119 -19 9 -23 20 -27 79 -8 102 -21 116 -110 122 -40 3 -85 8
-100 12 -23 6 -34 0 -76 -39 -35 -33 -57 -46 -79 -46 -74 0 -179 -46 -243
-106 -33 -31 -37 -32 -76 -22 -55 15 -92 4 -112 -34 -9 -17 -36 -53 -59 -79
-38 -44 -41 -51 -33 -80 13 -43 59 -109 86 -121 19 -9 21 -18 20 -71 0 -34 3
-79 7 -100 8 -37 8 -37 -36 -56 -24 -11 -55 -33 -68 -50 -18 -23 -40 -35 -84
-46 -33 -9 -84 -30 -114 -46 -61 -35 -92 -33 -67 3 19 27 21 69 4 86 -17 17
-53 15 -68 -3 -18 -22 -32 -18 -25 8 6 21 6 21 -9 3 -19 -23 -19 -30 -7 -74
l10 -33 -32 6 c-30 6 -31 5 -13 -10 11 -8 27 -15 36 -15 9 0 29 -13 44 -29 24
-25 26 -31 15 -49 -8 -12 -28 -23 -53 -26 -52 -9 -162 -80 -182 -118 -8 -16
-12 -37 -9 -47 6 -20 105 -110 142 -130 35 -18 39 -68 10 -147 -26 -73 -57
-232 -57 -295 0 -21 5 -60 10 -87 10 -43 8 -54 -14 -103 -32 -67 -34 -109 -7
-109 12 0 23 -11 30 -30 5 -16 15 -30 20 -30 6 0 11 -7 11 -15 0 -29 30 -75
49 -75 29 0 38 -19 43 -91 6 -73 36 -150 75 -192 27 -27 18 -36 -18 -16 -28
15 -52 -6 -44 -39 4 -16 0 -31 -11 -43 -14 -15 -14 -21 -4 -34 7 -8 19 -15 26
-15 9 0 14 -11 14 -30 0 -37 21 -48 53 -28 18 13 28 13 57 2 48 -17 143 -17
185 0 38 16 40 16 50 -34 9 -43 31 -86 61 -123 l23 -28 -27 -55 c-31 -64 -24
-91 24 -87 16 1 31 -2 34 -7 3 -4 17 -11 30 -15 19 -4 37 2 69 25 l43 32 -5
56 c-3 32 -11 109 -18 173 -11 111 -11 119 8 155 22 44 75 84 109 84 21 0 24
5 24 38 0 45 -38 491 -46 543 -8 54 11 113 49 146 28 25 34 39 50 123 35 183
97 334 204 494 76 114 212 256 321 334 l72 52 1 -52 c0 -74 69 -301 100 -333
28 -28 -10 -126 -88 -227 -65 -84 -77 -104 -96 -163 -30 -94 -32 -139 -6 -174
24 -33 51 -38 118 -25 38 8 39 20 5 59 -21 25 -25 37 -21 70 7 60 25 101 39
87 16 -16 43 1 58 37 7 17 10 37 7 45 -3 8 14 45 39 81 24 37 44 70 44 75 0 5
34 -12 75 -37 81 -49 115 -55 41 -7 -45 30 -116 107 -116 127 0 6 12 -4 28
-22 22 -27 99 -67 109 -58 1 2 -21 18 -48 36 -60 39 -79 75 -108 210 -25 111
-20 280 10 359 l9 24 31 -27 c18 -14 38 -24 46 -21 8 3 12 2 9 -2 -2 -4 37 -8
87 -9 77 -1 84 0 42 7 -64 9 -101 29 -146 77 -52 54 -81 116 -85 187 -4 59 -4
60 10 31 8 -16 19 -49 25 -72 6 -23 22 -55 35 -70 13 -15 25 -32 27 -38 2 -5
7 -9 12 -8 4 2 7 -2 7 -7 0 -5 3 -9 8 -8 4 1 25 -4 47 -11 58 -18 113 -2 158
49 44 48 60 103 54 187 -5 67 -11 79 -66 128 -50 44 -71 54 -120 55 -80 0
-148 -58 -170 -145 l-11 -40 4 42 c8 90 71 180 137 194 101 23 204 -24 291
-134 22 -29 50 -58 62 -66 l21 -15 -20 23 c-16 19 -17 24 -5 32 8 5 31 7 50 4
45 -7 254 -15 218 -9 -25 5 -41 24 -20 24 4 0 18 10 32 21 32 26 5 14 -37 -18
-30 -21 -39 -23 -93 -17 -50 5 -60 10 -60 25 0 20 15 25 25 9 13 -21 21 -9 17
26 l-5 37 24 -17 c33 -23 58 -20 131 14 34 17 80 33 100 36 32 6 39 12 49 41
6 20 9 53 6 74 -3 22 -4 39 -3 39 2 0 17 -7 35 -16 22 -11 45 -14 71 -10 l39
6 -14 -35 c-8 -19 -15 -48 -15 -65 0 -25 4 -30 24 -30 22 0 24 -4 30 -82 15
-179 51 -354 85 -408 14 -23 19 -45 16 -65 -4 -28 1 -34 86 -95 217 -156 396
-404 479 -664 52 -167 64 -243 64 -441 1 -156 3 -182 17 -192 21 -16 64 -90
73 -125 3 -15 1 -39 -4 -54 -10 -26 3 -60 19 -49 4 2 16 56 26 119 l19 116 53
0 c44 0 58 -5 86 -30 37 -32 83 -53 98 -44 12 7 12 -38 0 -70 -13 -33 -85 -74
-183 -102 -45 -13 -82 -25 -83 -26 -2 -2 0 -21 4 -43 6 -37 9 -40 49 -47 64
-11 159 -57 190 -92 66 -76 195 -94 291 -41 59 33 114 97 109 130 -2 16 -12
21 -49 25 -29 4 -66 18 -95 38 -27 17 -64 39 -82 49 -27 14 -32 22 -28 43 3
14 8 46 11 73 6 45 8 47 38 47 45 1 108 32 140 69 24 29 27 41 27 101 l0 69
35 7 c79 14 113 79 79 149 -21 46 -69 69 -116 57 -29 -7 -35 -4 -75 39 -24 26
-68 59 -97 75 l-53 28 1 65 c1 36 -2 84 -6 106 l-7 40 51 25 c62 30 66 39 67
178 1 84 4 102 16 102 27 0 55 38 55 75 0 48 -37 85 -83 85 -26 0 -37 6 -48
26 -42 79 -166 143 -256 130 -34 -4 -43 -3 -43 9 0 27 -38 55 -74 55 -67 0
-106 -60 -83 -126 6 -17 2 -25 -18 -38 l-25 -16 0 42 c0 24 -11 66 -24 94
l-23 51 28 10 c19 8 35 24 45 48 13 32 13 43 2 79 -10 29 -12 54 -5 87 l9 46
39 -11 c33 -9 43 -7 66 10 35 26 56 69 49 99 -5 21 -11 23 -71 21 -68 -1 -87
8 -100 52 -5 18 -2 22 15 22 35 0 88 27 95 48 13 42 -48 92 -113 92 -17 0 -34
5 -37 10 -4 6 -29 28 -56 50 -63 49 -152 84 -196 75 -45 -8 -99 -58 -114 -103
-16 -53 -24 -57 -55 -33 -15 11 -30 21 -35 21 -19 0 -39 -35 -39 -69 0 -46 31
-79 83 -88 l36 -5 -22 -34 c-15 -22 -30 -34 -45 -34 -37 0 -82 -52 -82 -94 0
-20 5 -36 10 -36 6 0 10 12 10 28 0 42 26 71 75 83 25 6 42 16 40 23 -3 6 13
31 34 56 36 42 40 44 65 32 45 -20 100 -14 161 18 64 33 85 32 110 -6 16 -25
16 -26 -7 -19 -22 7 -22 7 -5 -12 19 -22 12 -39 -10 -21 -20 16 -29 0 -10 -19
14 -15 20 -15 42 -3 14 7 28 10 32 6 13 -13 18 -118 9 -181 -9 -67 -9 -77 0
-122 9 -44 -2 -80 -28 -94 -30 -16 -232 -31 -263 -19 -38 14 -30 3 14 -19 21
-11 47 -18 58 -15 16 4 22 0 27 -21 12 -45 -1 -63 -56 -80 -29 -8 -59 -15 -67
-15 -22 1 -151 124 -151 144 0 18 -15 22 -25 6 -3 -5 -17 -10 -31 -10 -30 0
-33 30 -4 48 14 8 20 23 20 47 0 33 -2 35 -34 35 -31 0 -34 -3 -39 -37 -4 -21
-3 -39 2 -41 12 -4 -5 -62 -23 -80 -8 -8 -19 -11 -25 -8 -16 10 -13 36 3 36 8
0 17 4 20 8 3 5 -9 7 -27 5 -32 -4 -32 -4 -8 9 30 16 41 41 14 32 -11 -4 -14
-3 -7 3 6 4 14 18 18 30 6 18 4 22 -8 17 -30 -12 -17 24 20 54 36 30 39 58 4
49 -15 -4 -17 4 -16 67 1 61 -3 78 -29 124 -30 56 -53 78 -130 126 -45 28 -47
31 -42 67 7 54 43 108 75 114 65 13 77 20 80 47 2 20 -4 31 -24 44 -25 17 -26
21 -21 74 9 82 -7 127 -64 182 -27 26 -49 51 -49 56 0 4 -14 19 -32 32 -30 22
-31 22 -26 2 5 -17 1 -20 -21 -19 -22 2 -26 -2 -24 -23 2 -19 -6 -30 -30 -45
-44 -27 -77 -96 -77 -160 0 -49 -2 -52 -35 -68 -58 -28 -41 -79 31 -93 45 -8
66 -52 62 -127 -3 -48 -5 -52 -33 -61 -16 -5 -65 -25 -109 -44 -65 -28 -82
-32 -102 -23 -13 6 -24 15 -24 21 0 21 -30 9 -36 -15 -3 -14 -10 -25 -15 -25
-5 0 -15 -11 -21 -25 -10 -22 -18 -25 -60 -25 -45 0 -51 3 -106 58 -31 31 -76
66 -100 76 -38 17 -42 23 -42 54 0 31 2 34 23 27 12 -3 43 -9 68 -12 73 -8
152 38 120 70 -9 9 1 18 41 37 38 18 54 32 56 48 3 21 0 22 -57 22 -86 0 -137
22 -145 63 -12 60 -53 133 -99 173 -42 37 -45 42 -30 56 22 23 8 38 -36 38
-33 0 -37 3 -37 23 1 34 -36 34 -69 -2z m55 3 c0 -8 -5 -25 -11 -36 -10 -19
-9 -20 12 -14 58 16 79 18 79 7 0 -6 -11 -17 -25 -23 -14 -6 -25 -14 -25 -17
1 -3 19 -15 42 -26 52 -25 95 -77 113 -140 13 -41 13 -46 1 -35 -12 9 -20 8
-39 -5 -16 -10 -34 -14 -50 -10 -20 5 -28 2 -37 -17 -23 -44 -63 -78 -92 -78
-30 0 -34 -10 -18 -39 10 -20 40 -34 108 -51 38 -10 43 -14 38 -33 -3 -12 -6
-29 -6 -38 0 -12 -14 -18 -57 -22 -32 -3 -65 -8 -74 -11 -12 -6 -18 5 -28 49
-10 45 -18 58 -41 70 -67 35 -70 43 -72 211 0 28 10 61 30 100 17 33 34 71 37
87 6 30 25 37 25 10 0 -12 8 -6 21 17 32 53 69 76 69 44z m868 -46 c9 -9 12
-9 12 0 0 22 19 13 26 -12 3 -13 16 -28 29 -34 12 -6 32 -24 44 -41 20 -28 21
-31 5 -31 -16 0 -16 -1 1 -14 16 -12 19 -26 18 -95 0 -60 3 -81 13 -81 7 0 20
-8 29 -17 16 -16 16 -17 -1 -30 -10 -7 -27 -13 -37 -13 -16 0 -17 2 -7 15 17
20 5 31 -15 15 -14 -11 -25 -11 -66 4 -36 13 -63 17 -97 12 -79 -12 -87 -12
-85 2 2 7 -7 12 -22 12 -28 0 -33 -15 -9 -24 9 -4 14 -9 11 -13 -10 -9 -67 18
-67 33 0 20 33 34 80 34 22 0 55 7 72 16 39 20 98 14 134 -15 15 -12 34 -21
43 -21 9 0 -7 14 -36 30 -58 33 -112 38 -153 15 -14 -8 -37 -14 -51 -15 -25 0
-26 1 -21 58 5 72 30 104 65 83 20 -13 21 -13 8 3 -10 12 -22 15 -38 11 -21
-5 -23 -3 -14 12 12 24 39 47 75 65 18 10 25 18 17 22 -6 4 -11 11 -11 17 0
13 34 11 48 -3z m-685 -262 c11 -27 91 -56 155 -56 91 0 80 -19 -33 -63 -106
-41 -130 -44 -201 -22 -62 19 -74 18 -49 -1 19 -15 19 -15 -10 -9 -88 20 -97
31 -47 57 21 10 48 34 61 53 19 28 30 35 57 35 18 0 36 5 39 10 9 14 22 12 28
-4z m670 -157 l42 -6 -37 -2 c-29 -1 -45 6 -66 27 -15 15 -18 18 -5 8 13 -11
42 -23 66 -27z m-1593 21 c22 -11 40 -16 40 -11 0 12 53 19 78 10 37 -14 58
-144 27 -169 -22 -19 -72 7 -139 70 -51 49 -78 60 -91 40 -3 -6 1 -7 10 -4 11
5 30 -8 58 -38 75 -79 142 -113 172 -88 19 16 66 -13 128 -79 46 -49 87 -148
87 -211 0 -15 5 -42 12 -60 10 -31 9 -35 -15 -54 -15 -12 -45 -32 -68 -45 -38
-21 -41 -21 -34 -5 17 44 14 56 -5 18 -24 -47 -25 -49 -152 -164 -51 -47 -109
-104 -128 -127 -19 -23 -37 -42 -40 -42 -3 -1 -13 12 -23 28 l-17 28 31 9 c24
7 8 9 -64 9 -52 0 -90 -3 -84 -7 7 -4 33 -8 58 -8 42 0 46 -2 63 -37 17 -36
17 -38 0 -48 -10 -5 -31 -23 -48 -38 l-29 -29 -41 19 c-22 10 -59 34 -82 54
-23 20 -57 46 -77 57 -31 20 -35 27 -41 83 -4 34 -16 86 -27 115 -23 60 -50
76 -96 55 -39 -18 -48 -1 -48 88 0 59 4 84 16 98 28 31 42 92 36 160 -4 50 -1
67 11 79 14 15 14 16 -4 12 -17 -3 -20 -14 -24 -99 -4 -67 -10 -103 -23 -122
-19 -30 -19 -30 -42 -21 -18 7 -69 78 -79 112 -6 18 0 29 29 56 20 19 44 49
53 67 24 47 42 54 99 43 47 -9 49 -8 98 31 62 50 137 83 218 97 52 9 68 17
100 49 21 22 42 39 48 39 5 0 28 -9 49 -20z m2180 0 c0 -5 7 -10 15 -10 8 0
15 5 15 10 0 15 36 12 78 -7 l37 -16 -63 -8 c-34 -4 -88 -19 -119 -33 -30 -14
-57 -26 -59 -26 -10 0 30 67 50 82 23 20 46 23 46 8z m-1135 -29 c3 -5 1 -12
-5 -16 -5 -3 -10 1 -10 9 0 18 6 21 15 7z m-135 -25 c25 -8 36 -15 25 -15 -11
0 -33 6 -50 14 -39 18 -31 18 25 1z m1128 -116 c27 -14 32 -19 17 -20 -11 0
-31 7 -43 16 -13 9 -26 13 -29 10 -12 -12 20 -35 60 -45 l42 -9 -36 -1 c-47
-1 -89 31 -89 68 0 37 10 45 27 21 8 -11 31 -29 51 -40z m272 12 c-44 -20
-181 -28 -207 -12 -15 9 -10 11 27 7 25 -2 74 1 110 8 92 17 112 17 70 -3z
m-558 -69 c10 -9 18 -22 18 -30 0 -7 5 -13 10 -13 6 0 10 -7 10 -15 0 -8 -4
-15 -10 -15 -5 0 -10 5 -10 11 0 6 -13 22 -30 36 -16 13 -30 29 -30 34 0 14
22 10 42 -8z m-982 -13 c0 -5 -4 -10 -9 -10 -6 0 -13 5 -16 10 -3 6 1 10 9 10
9 0 16 -4 16 -10z m84 -21 c29 -22 35 -49 11 -49 -8 0 -15 4 -15 10 0 5 -13
16 -30 25 -16 9 -30 20 -30 25 0 17 36 11 64 -11z m-309 -51 c-4 -13 -9 -32
-12 -43 -3 -11 -17 -33 -32 -50 -14 -16 -18 -23 -8 -16 9 8 20 11 23 8 9 -9
-71 -142 -88 -145 -36 -7 -75 192 -45 232 14 19 15 19 21 -2 7 -21 49 -53 44
-33 -3 9 78 69 95 70 5 1 5 -9 2 -21z m2046 -24 c35 6 39 4 39 -15 0 -28 -53
-79 -82 -78 -13 0 -17 3 -10 6 10 4 9 9 -5 20 -17 13 -17 14 5 8 25 -7 62 2
62 16 0 5 -17 9 -37 9 -34 0 -73 22 -73 41 0 4 14 3 31 -3 16 -6 48 -8 70 -4z
m-1884 -240 c-9 -9 -28 6 -21 18 4 6 10 6 17 -1 6 -6 8 -13 4 -17z m1109 -61
c-10 -10 -19 5 -10 18 6 11 8 11 12 0 2 -7 1 -15 -2 -18z m-2280 -80 c21 -44
31 -160 16 -175 -8 -8 -31 3 -79 36 -50 34 -77 46 -103 46 l-35 -1 36 -13 c20
-7 64 -32 97 -56 43 -30 68 -41 83 -37 15 4 40 -6 82 -35 49 -33 64 -51 88
-102 22 -45 28 -52 23 -28 -3 17 -3 32 1 32 3 0 28 -9 55 -21 l48 -21 -54
-102 c-93 -177 -155 -400 -171 -619 l-6 -87 -31 20 c-30 18 -31 21 -28 79 4
56 2 63 -26 91 -26 25 -38 30 -80 30 -44 0 -54 -4 -76 -31 -18 -21 -26 -42
-26 -69 0 -39 -11 -50 -50 -50 -10 0 -36 24 -59 55 -42 55 -61 71 -41 36 15
-29 12 -33 -12 -20 -21 11 -22 11 -9 -4 7 -9 28 -26 47 -38 41 -25 43 -36 7
-51 -16 -7 -45 -23 -66 -36 l-38 -23 -30 26 c-39 32 -96 100 -115 137 -8 15
-17 28 -20 28 -15 0 65 -126 103 -160 l43 -41 -37 -45 c-22 -26 -43 -42 -51
-39 -8 3 -18 5 -22 5 -18 0 -82 64 -100 100 -29 57 -40 144 -29 240 10 90 46
240 58 240 4 0 12 -10 17 -22 6 -13 9 -17 7 -10 -19 90 -24 145 -14 173 6 18
11 69 11 113 0 51 5 87 12 94 9 9 8 12 -5 12 -26 0 -39 -47 -32 -112 8 -63 0
-98 -20 -98 -16 0 -131 96 -139 117 -9 22 11 50 55 81 71 47 103 62 135 62 23
0 34 7 45 26 34 65 158 144 247 159 33 5 46 13 57 36 18 33 43 49 80 49 14 0
24 4 20 10 -7 11 62 49 91 50 15 0 27 -11 40 -37z m3072 -75 c4 -23 -47 -46
-59 -26 -4 6 -3 20 2 31 13 23 52 19 57 -5z m-3578 -17 c0 -28 -21 -57 -33
-45 -3 4 -2 15 4 26 13 25 4 35 -16 18 -22 -18 -19 -35 15 -73 16 -19 27 -37
23 -40 -10 -11 -42 13 -58 43 -16 32 -20 75 -6 66 5 -3 11 3 14 14 3 14 14 20
31 20 22 0 26 -4 26 -29z m3807 -10 c48 -24 103 -79 103 -102 0 -9 -41 -72
-91 -140 -115 -156 -111 -149 -89 -179 18 -24 24 -25 129 -25 l111 0 0 -26 c0
-74 -163 -117 -315 -84 l-80 17 -85 87 c-92 95 -131 159 -138 230 -3 41 0 49
26 75 l30 28 14 -23 c8 -13 30 -50 49 -82 39 -67 105 -135 117 -122 11 12 55
200 72 304 l12 74 48 -6 c27 -3 66 -15 87 -26z m-442 -131 c-20 -23 -29 -21
-19 4 3 9 13 16 22 16 13 0 12 -3 -3 -20z m633 -32 c16 -16 15 -43 -3 -58 -12
-10 -16 -6 -23 22 -13 46 -1 63 26 36z m-420 -10 c17 -17 15 -38 -4 -38 -11 0
-14 5 -10 16 4 11 1 14 -12 12 -10 -2 -18 -14 -20 -31 -2 -15 -8 -25 -13 -22
-15 10 -10 34 11 55 23 23 31 25 48 8z m-244 -99 c-9 -15 -29 -10 -42 11 -11
18 -9 25 10 53 l23 31 7 -43 c4 -24 5 -48 2 -52z m512 -54 c9 -14 13 -32 9
-44 -7 -24 -51 -39 -68 -22 -8 8 -5 11 11 11 25 0 44 30 33 49 -7 11 -9 11
-13 0 -2 -7 -9 -9 -16 -5 -9 5 -9 10 1 21 17 20 24 18 43 -10z m-414 -82 c106
-120 133 -140 194 -153 33 -7 65 -14 73 -16 9 -3 -1 -20 -30 -52 -24 -26 -58
-63 -74 -83 -32 -39 -92 -61 -99 -36 -2 6 -12 41 -22 77 -10 36 -35 108 -56
160 -33 82 -48 150 -33 150 2 0 24 -21 47 -47z m284 -348 c19 -30 21 -26 -34
-54 -51 -26 -62 -21 -62 24 0 56 65 77 96 30z m206 -69 c20 -10 41 -23 46 -29
6 -8 -9 -44 -45 -107 -30 -52 -63 -114 -74 -137 -18 -39 -18 -44 -3 -76 25
-52 13 -84 -36 -98 -77 -23 -180 43 -180 116 0 37 14 52 58 61 36 7 55 46 97
190 14 49 27 94 29 101 6 14 55 4 108 -21z m-3444 -170 c4 -41 -8 -50 -53 -38
-39 11 -46 51 -15 82 19 19 24 20 43 7 15 -9 23 -27 25 -51z m3244 38 c18 -38
-7 -79 -47 -79 -37 0 -55 40 -37 80 16 36 68 35 84 -1z m441 -36 c9 -7 19 -25
22 -40 8 -33 -25 -71 -58 -66 -19 3 -22 10 -25 61 -3 54 -2 57 21 57 13 0 31
-6 40 -12z m-3929 -156 c-7 -111 2 -190 31 -290 9 -30 22 -52 30 -52 21 0 83
78 121 153 39 76 93 141 137 164 38 19 42 12 50 -80 4 -40 9 -85 12 -102 6
-27 -3 -39 -82 -125 -48 -53 -101 -115 -117 -138 -16 -24 -42 -50 -57 -58 -32
-16 -104 -20 -79 -4 8 5 28 10 43 10 35 0 77 40 77 74 0 34 -22 126 -30 126
-4 0 -5 -13 -2 -29 9 -63 -45 -151 -93 -151 -32 0 -36 9 -20 41 23 43 19 78
-10 91 -31 14 -80 -5 -102 -39 -21 -32 -4 -70 34 -78 15 -3 45 -11 65 -17 34
-10 36 -12 20 -24 -39 -30 -119 -5 -141 43 -6 13 -11 44 -11 69 0 26 -9 62
-21 86 -32 64 -49 116 -60 192 -9 66 -8 71 17 107 31 45 70 76 139 112 28 14
51 26 53 27 1 0 -1 -49 -4 -108z m3748 71 c22 -20 23 -42 2 -71 -23 -33 -75
-27 -88 10 -20 56 43 101 86 61z m-4088 -70 c24 -28 27 -36 16 -43 -10 -6 -26
2 -51 23 -40 34 -47 55 -26 76 10 10 14 9 22 -5 6 -9 23 -33 39 -51z m439
-155 c-5 -23 -2 -34 12 -44 23 -17 11 -32 -13 -18 -27 17 -29 94 -3 94 6 0 8
-13 4 -32z m42 12 c3 -5 -1 -10 -9 -10 -9 0 -16 5 -16 10 0 6 4 10 9 10 6 0
13 -4 16 -10z m-414 -12 c-1 -5 -1 -17 -1 -28 0 -23 -28 -27 -36 -5 -9 22 4
47 21 43 9 -2 16 -6 16 -10z m58 -192 c-8 -17 -8 -29 0 -44 17 -32 12 -39 -9
-13 -30 35 -26 81 6 81 11 0 11 -5 3 -24z m41 -6 c0 -5 -4 -10 -10 -10 -5 0
-10 5 -10 10 0 6 5 10 10 10 6 0 10 -4 10 -10z m132 -65 c-34 -29 -63 -35 -41
-9 13 15 44 32 62 33 5 1 -5 -10 -21 -24z m198 -17 c0 -26 -16 -55 -25 -47 -5
6 14 69 21 69 2 0 4 -10 4 -22z m-277 -53 c9 -20 17 -38 17 -41 0 -7 -62 26
-82 44 -26 23 -22 32 15 32 28 0 36 -5 50 -35z m3978 -5 c33 0 39 -3 39 -22 0
-24 -91 -118 -114 -118 -21 0 -27 28 -9 39 15 8 15 11 3 26 -12 15 -12 18 4
27 13 7 15 13 6 23 -15 18 -3 38 17 31 8 -3 32 -6 54 -6z"/>
<path d="M2099 4513 c-13 -16 -12 -17 4 -4 9 7 17 15 17 17 0 8 -8 3 -21 -13z"/>
<path d="M2128 4479 c-10 -5 -18 -15 -18 -21 0 -6 8 -4 18 5 24 22 35 21 56
-2 17 -18 16 -19 -2 -25 -24 -8 -34 -40 -22 -72 11 -29 -9 -33 -34 -8 -14 13
-16 13 -16 1 0 -15 29 -27 67 -27 41 0 56 65 28 119 -20 39 -45 49 -77 30z
m72 -69 c0 -5 -4 -10 -10 -10 -5 0 -10 5 -10 10 0 6 5 10 10 10 6 0 10 -4 10
-10z"/>
<path d="M2102 4410 c0 -19 2 -27 5 -17 2 9 2 25 0 35 -3 9 -5 1 -5 -18z"/>
<path d="M3149 4503 c-13 -16 -12 -17 4 -4 9 7 17 15 17 17 0 8 -8 3 -21 -13z"/>
<path d="M3021 4463 c-1 -6 -10 -9 -23 -5 -13 3 -19 1 -15 -6 4 -5 2 -12 -4
-14 -14 -5 0 -38 17 -38 17 0 37 36 31 58 -3 9 -5 12 -6 5z"/>
<path d="M3141 4451 c-8 -5 -11 -16 -6 -30 9 -30 40 -23 40 8 0 27 -13 35 -34
22z"/>
<path d="M3025 4350 c-3 -5 -2 -10 4 -10 5 0 13 5 16 10 3 6 2 10 -4 10 -5 0
-13 -4 -16 -10z"/>
<path d="M3120 4345 c7 -8 17 -15 22 -15 6 0 5 7 -2 15 -7 8 -17 15 -22 15 -6
0 -5 -7 2 -15z"/>
<path d="M2302 4323 c2 -10 11 -19 21 -21 24 -5 21 15 -4 28 -18 10 -20 9 -17
-7z"/>
<path d="M1396 4053 c-4 -9 0 -23 9 -32 13 -14 17 -14 31 1 9 9 14 24 11 32
-8 21 -43 20 -51 -1z"/>
<path d="M1285 3959 c-45 -13 -112 -74 -125 -115 -12 -35 -9 -90 5 -127 7 -16
4 -17 -21 -12 -26 5 -26 4 6 -10 84 -39 187 -26 283 34 43 28 108 110 106 135
0 6 -5 1 -11 -11 -15 -31 -25 -29 -33 5 -3 16 -20 43 -38 60 -51 50 -102 62
-172 41z m128 -26 c34 -17 67 -69 67 -105 0 -36 -28 -63 -103 -98 -120 -57
-185 -48 -206 27 -23 81 27 160 118 187 48 15 78 12 124 -11z"/>
<path d="M1355 3880 c-18 -30 32 -82 54 -56 8 10 6 20 -10 40 -22 28 -34 32
-44 16z m45 -42 c0 -6 -7 -5 -15 2 -8 7 -15 17 -15 22 0 6 7 5 15 -2 8 -7 15
-17 15 -22z"/>
<path d="M1227 3820 c-8 -31 3 -60 23 -60 24 0 34 33 20 60 -14 26 -36 26 -43
0z m33 -31 c0 -5 -4 -9 -10 -9 -5 0 -10 7 -10 16 0 8 5 12 10 9 6 -3 10 -10
10 -16z"/>
<path d="M1057 3927 c-8 -22 17 -51 37 -44 25 10 17 51 -10 55 -12 2 -24 -3
-27 -11z"/>
<path d="M1440 3659 c-25 -16 -66 -33 -90 -38 l-45 -9 39 -1 c46 -1 122 32
137 60 12 23 14 24 -41 -12z"/>
<path d="M854 3255 c-9 -14 -14 -28 -11 -31 7 -7 66 37 66 49 2 18 -40 5 -55
-18z"/>
<path d="M748 3140 c-22 -12 -48 -38 -64 -66 -22 -37 -26 -54 -22 -95 3 -29
13 -58 24 -70 l19 -21 -39 3 c-22 2 -41 -1 -43 -7 -2 -6 7 -9 24 -7 18 3 47
-6 78 -23 100 -54 166 -51 233 11 36 33 37 35 38 112 1 84 13 125 41 142 17
10 17 10 -3 11 -14 0 -26 -12 -38 -36 l-17 -37 -17 34 c-33 65 -137 89 -214
49z m148 -9 c76 -35 81 -112 10 -166 -43 -33 -115 -65 -148 -65 -15 0 -40 11
-55 24 -24 21 -28 32 -28 74 0 62 24 98 85 130 53 27 82 27 136 3z m61 -238
c5 -13 -57 -53 -82 -53 -25 0 -13 22 25 48 34 23 51 24 57 5z"/>
<path d="M837 3086 c-6 -15 19 -56 34 -56 19 0 21 31 4 50 -21 24 -31 25 -38
6z"/>
<path d="M730 3019 c0 -20 21 -49 35 -49 16 0 19 18 9 44 -7 18 -44 22 -44 5z"/>
<path d="M551 3071 c-14 -25 -3 -33 23 -16 11 8 29 15 39 15 10 0 15 5 12 10
-11 18 -64 11 -74 -9z"/>
<path d="M1000 2835 c-6 -7 -35 -25 -63 -40 -28 -14 -43 -25 -34 -25 28 0 95
38 107 60 13 23 8 26 -10 5z"/>
<path d="M4028 3033 c7 -3 16 -2 19 1 4 3 -2 6 -13 5 -11 0 -14 -3 -6 -6z"/>
<path d="M4117 3033 c-13 -12 -7 -40 12 -57 24 -22 75 -18 79 6 6 33 -68 75
-91 51z m73 -29 c0 -2 -9 0 -20 6 -11 6 -20 13 -20 16 0 2 9 0 20 -6 11 -6 20
-13 20 -16z"/>
<path d="M4041 3000 c0 -8 4 -22 9 -30 12 -18 12 -2 0 25 -6 13 -9 15 -9 5z"/>
<path d="M4225 2920 c-3 -5 -1 -10 4 -10 6 0 11 5 11 10 0 6 -2 10 -4 10 -3 0
-8 -4 -11 -10z"/>
<path d="M4173 2903 c9 -2 23 -2 30 0 6 3 -1 5 -18 5 -16 0 -22 -2 -12 -5z"/>
<path d="M4220 2267 c0 -13 5 -28 12 -35 16 -16 53 -15 67 2 10 11 7 19 -10
35 -32 29 -69 28 -69 -2z"/>
<path d="M4170 2455 c-10 -12 -10 -18 0 -30 7 -8 18 -15 25 -15 19 0 36 25 29
44 -8 20 -38 21 -54 1z"/>
<path d="M4450 2331 c0 -6 -7 -11 -16 -11 -9 0 -14 -7 -12 -17 2 -12 12 -18
28 -18 20 0 25 5 25 24 0 13 -6 26 -12 29 -7 2 -13 -1 -13 -7z"/>
<path d="M3035 4045 c-27 -13 -52 -22 -57 -19 -5 3 -7 2 -6 -3 3 -9 -65 -73
-97 -91 -18 -10 -15 -11 18 -12 21 0 54 -7 74 -15 50 -21 56 -17 8 6 -22 10
-33 19 -25 19 13 0 13 1 0 10 -12 8 -9 15 20 45 19 20 57 47 85 60 27 13 45
24 39 25 -6 0 -32 -11 -59 -25z"/>
<path d="M3596 3948 c-9 -12 -16 -27 -16 -32 0 -6 7 0 16 12 16 23 58 30 69
11 10 -15 -4 -24 -17 -11 -15 15 -38 -3 -38 -28 0 -23 26 -33 51 -20 22 12 26
59 7 78 -19 19 -55 14 -72 -10z"/>
<path d="M3451 3886 c-7 -8 -11 -25 -9 -38 4 -31 46 -36 79 -9 20 16 22 23 13
38 -14 23 -67 29 -83 9z"/>
<path d="M2664 3859 c10 -6 48 -13 85 -15 55 -3 59 -2 26 5 -22 5 -60 11 -85
15 -36 5 -41 4 -26 -5z"/>
<path d="M3645 3840 c-3 -5 4 -10 16 -10 17 0 19 -3 10 -14 -10 -11 -10 -20 0
-37 10 -19 9 -25 -7 -36 -24 -17 -54 2 -68 45 -16 44 -27 51 -20 11 13 -64 32
-89 72 -89 12 0 22 -6 22 -14 0 -7 13 -19 29 -26 23 -9 37 -9 65 1 51 18 45
29 -13 22 -43 -5 -50 -3 -60 16 -16 29 -6 41 29 34 22 -4 31 -1 36 11 5 13 9
14 20 5 27 -23 15 16 -13 43 -48 44 -103 62 -118 38z m86 -37 c13 -15 12 -15
-8 -4 -24 12 -29 21 -14 21 5 0 15 -7 22 -17z"/>
<path d="M3825 3826 c-21 -32 -5 -69 28 -64 30 4 37 48 8 48 -12 0 -21 5 -21
11 0 6 12 9 27 7 19 -2 29 -10 34 -28 6 -23 7 -23 8 -3 2 38 -10 53 -40 53
-19 0 -34 -8 -44 -24z"/>
<path d="M2606 3823 c-7 -18 9 -33 37 -33 22 0 23 36 1 44 -24 9 -31 7 -38
-11z"/>
<path d="M2830 3804 c0 -17 22 -14 28 4 2 7 -3 12 -12 12 -9 0 -16 -7 -16 -16z"/>
<path d="M3124 3750 c22 -74 36 -89 36 -40 0 24 -43 110 -55 110 -1 0 7 -31
19 -70z"/>
<path d="M2745 3800 c-7 -12 2 -30 16 -30 5 0 9 9 9 20 0 21 -15 27 -25 10z"/>
<path d="M3436 3725 c-4 -10 1 -15 14 -15 13 0 18 5 14 15 -4 8 -10 15 -14 15
-4 0 -10 -7 -14 -15z"/>
<path d="M3590 3697 c0 -39 115 -89 134 -58 5 7 -1 11 -14 11 -25 0 -72 23
-89 44 -16 19 -31 21 -31 3z"/>
<path d="M3867 3683 c-12 -12 -7 -60 7 -72 35 -29 76 35 44 67 -13 13 -41 16
-51 5z"/>
<path d="M3480 3665 c0 -8 6 -15 14 -15 8 0 17 -13 21 -30 5 -20 13 -30 26
-30 16 0 15 5 -13 45 -33 47 -48 56 -48 30z"/>
<path d="M3206 3535 c8 -37 14 -45 14 -19 0 10 -5 26 -10 34 -8 11 -9 7 -4
-15z"/>
<path d="M2835 3531 c-17 -7 -15 -9 12 -13 26 -4 30 -2 22 9 -7 7 -12 13 -13
12 0 0 -10 -4 -21 -8z"/>
<path d="M3026 3524 c-5 -13 -3 -14 6 -7 7 6 20 13 28 16 10 4 8 6 -6 6 -12 1
-25 -6 -28 -15z"/>
<path d="M2928 3463 c6 -2 18 -2 25 0 6 3 1 5 -13 5 -14 0 -19 -2 -12 -5z"/>
<path d="M2605 3440 c33 -4 80 -8 105 -7 41 0 39 1 -15 7 -33 4 -80 8 -105 7
-41 0 -39 -1 15 -7z"/>
<path d="M2430 3426 c-57 -16 -84 -28 -45 -20 104 21 147 32 120 32 -16 0 -50
-5 -75 -12z"/>
<path d="M2958 3431 c12 -6 22 -16 22 -23 0 -9 3 -9 12 0 15 15 10 19 -27 26
-26 6 -27 5 -7 -3z"/>
<path d="M2765 3425 c6 -2 36 -6 67 -10 40 -4 64 -13 83 -31 30 -28 44 -30 71
-9 18 14 17 15 -10 9 -19 -5 -27 -3 -23 3 4 6 -3 13 -14 16 -12 3 -19 9 -16
14 3 4 -34 9 -82 10 -47 1 -81 0 -76 -2z"/>
<path d="M3075 3420 c-13 -5 -14 -9 -5 -9 8 0 24 4 35 9 13 5 14 9 5 9 -8 0
-24 -4 -35 -9z"/>
<path d="M3184 3375 c-28 -27 -73 -84 -99 -125 -169 -264 -233 -317 -435 -360
l-85 -18 75 -1 c78 -1 153 14 207 42 65 34 64 7 -2 -35 -27 -18 -28 -19 -5
-13 14 4 38 20 54 35 l29 29 34 -37 c18 -20 33 -39 33 -43 0 -5 12 -14 27 -21
37 -18 72 -90 79 -164 6 -56 5 -63 -15 -73 -18 -10 -21 -9 -21 8 0 10 -7 32
-16 47 l-16 29 6 -47 c15 -122 19 -138 33 -138 39 0 61 160 33 245 -8 24 -43
71 -91 122 -44 46 -79 88 -79 95 0 6 15 27 33 47 18 20 63 90 100 157 37 66
87 143 111 170 41 47 71 93 64 98 -2 1 -26 -21 -54 -49z"/>
<path d="M2938 3323 c6 -2 18 -2 25 0 6 3 1 5 -13 5 -14 0 -19 -2 -12 -5z"/>
<path d="M2220 3006 c0 -2 8 -10 18 -17 15 -13 16 -12 3 4 -13 16 -21 21 -21
13z"/>
<path d="M2465 2890 c11 -5 29 -8 40 -8 16 0 15 2 -5 8 -34 11 -60 11 -35 0z"/>
<path d="M2728 2833 c7 -3 16 -2 19 1 4 3 -2 6 -13 5 -11 0 -14 -3 -6 -6z"/>
<path d="M3010 2760 c0 -5 5 -10 10 -10 6 0 10 5 10 10 0 6 -4 10 -10 10 -5 0
-10 -4 -10 -10z"/>
<path d="M3021 2704 c0 -11 3 -14 6 -6 3 7 2 16 -1 19 -3 4 -6 -2 -5 -13z"/>
<path d="M2211 2634 c0 -11 3 -14 6 -6 3 7 2 16 -1 19 -3 4 -6 -2 -5 -13z"/>
<path d="M2222 2547 c2 -26 6 -47 11 -47 7 0 -2 80 -10 90 -2 2 -3 -17 -1 -43z"/>
<path d="M1510 2488 c-191 -22 -236 -33 -262 -68 -18 -24 -17 -33 7 -335 16
-198 31 -322 40 -342 l14 -32 -37 -6 c-20 -4 -49 -9 -64 -11 -15 -3 -39 -19
-54 -37 -21 -25 -25 -37 -20 -71 3 -23 15 -142 26 -265 22 -231 30 -263 72
-276 10 -4 62 -4 114 0 73 6 100 12 121 28 25 20 26 23 20 104 l-6 83 29 0
c15 0 35 3 44 6 13 5 16 -2 17 -37 1 -76 15 -142 35 -156 12 -9 50 -13 114
-13 83 0 99 3 118 21 l23 20 28 -30 c37 -40 66 -39 137 1 56 31 56 31 86 13
26 -15 44 -16 122 -10 50 4 96 11 102 16 7 5 22 4 40 -4 23 -11 65 -12 199 -6
94 5 216 8 272 8 113 -1 140 8 155 52 l10 30 38 -42 39 -41 103 2 c57 0 153
-4 213 -9 126 -12 190 -4 262 32 l48 25 35 -29 c84 -70 242 -95 325 -52 119
63 167 196 110 308 -21 42 -22 51 -10 65 7 8 27 43 43 78 35 73 31 107 -18
142 -139 99 -328 81 -402 -38 l-21 -35 -21 25 c-33 39 -89 77 -140 94 l-47 16
25 27 c24 25 25 33 32 202 7 194 5 208 -49 235 -18 9 -33 18 -35 19 -1 1 9 40
24 85 24 78 25 86 11 115 -28 60 -161 100 -300 92 -76 -4 -99 -10 -162 -41
-66 -32 -79 -44 -117 -101 -23 -36 -45 -65 -49 -65 -4 0 -10 9 -14 19 -12 39
-110 117 -171 136 -153 48 -340 -3 -409 -113 -21 -33 -35 -41 -35 -19 0 27
-70 95 -122 117 -62 27 -220 38 -332 23 l-68 -10 -20 32 c-17 30 -56 48 -92
44 -6 -1 -85 -10 -176 -21z m228 -41 c15 -18 27 -172 15 -180 -6 -4 -54 -12
-107 -18 l-96 -12 0 -34 0 -34 80 7 c78 6 80 6 89 -18 8 -22 15 -93 12 -130
-1 -13 -15 -18 -58 -23 -102 -12 -96 -3 -88 -120 4 -59 3 -105 -2 -108 -5 -3
-57 -11 -117 -18 -81 -9 -110 -9 -119 0 -11 11 -16 54 -52 455 -16 172 -16
181 1 193 10 7 29 13 43 14 14 0 94 9 176 19 187 22 210 23 223 7z m1653 -11
c73 -13 131 -36 143 -55 6 -10 -41 -170 -54 -184 -4 -5 -21 -2 -38 7 -39 20
-124 21 -162 1 -35 -18 -65 -59 -74 -102 -14 -60 47 -133 110 -133 30 0 34 3
34 25 0 24 -9 29 -47 28 -14 -1 -17 44 -6 97 l6 33 120 -7 c66 -4 128 -11 138
-17 17 -9 18 -21 12 -172 -3 -89 -8 -165 -12 -168 -12 -11 -113 -29 -164 -29
-37 0 -48 3 -37 10 11 7 5 10 -25 10 -22 0 -51 3 -64 7 -18 5 -22 3 -16 -7 6
-10 0 -11 -31 -6 -39 8 -94 32 -94 42 0 3 6 2 13 -1 6 -4 1 3 -13 14 -24 20
-36 25 -53 22 -5 -1 -6 3 -3 8 4 5 -10 22 -29 38 -48 37 -63 68 -75 150 -10
73 4 163 35 223 42 81 130 146 225 166 71 16 71 16 161 0z m-618 -54 c59 -26
114 -83 146 -151 44 -95 31 -265 -24 -325 -13 -14 -21 -27 -19 -29 3 -2 -3
-10 -13 -18 -14 -12 -16 -12 -8 0 5 10 4 12 -4 7 -6 -4 -9 -11 -6 -15 13 -22
-70 -66 -157 -82 -67 -12 -145 -3 -141 18 2 10 -73 39 -90 35 -4 -1 -10 5 -13
13 -3 8 -10 12 -15 9 -5 -3 -8 -1 -7 4 2 5 -13 25 -33 45 -69 68 -86 222 -35
332 42 93 94 139 191 172 54 18 171 10 228 -15z m-612 3 c79 -28 139 -113 139
-194 -1 -35 -35 -110 -67 -143 l-25 -26 66 -83 c37 -45 66 -89 64 -98 -3 -16
-142 -99 -169 -100 -14 -1 -98 114 -99 135 -1 5 -14 25 -30 44 l-30 34 0 -86
c0 -49 -5 -90 -10 -93 -6 -4 -41 -3 -78 1 -48 5 -61 9 -47 15 15 6 9 8 -22 8
-24 1 -43 -4 -43 -10 0 -5 -4 -7 -10 -4 -15 9 -13 582 2 591 43 27 290 33 359
9z m-602 -709 c6 -7 14 -43 18 -80 7 -76 11 -72 -92 -83 -67 -8 -70 -9 -73
-35 l-3 -27 68 2 68 2 6 -54 c9 -67 4 -81 -30 -81 -14 0 -42 -3 -61 -6 l-36
-6 9 -84 c5 -46 7 -90 4 -97 -6 -17 -184 -34 -198 -20 -8 8 -59 447 -59 506 0
26 31 36 185 56 178 24 180 24 194 7z m1142 -16 c16 -9 19 -22 19 -74 0 -75
-2 -76 -96 -76 -57 0 -64 -2 -64 -20 0 -16 8 -19 63 -22 l62 -3 3 -55 c4 -66
-10 -80 -80 -80 -41 0 -48 -3 -48 -20 0 -17 8 -19 83 -22 l82 -3 0 -70 0 -70
-172 -3 c-172 -2 -173 -2 -177 20 -3 13 -8 125 -11 250 -5 180 -3 228 7 235 7
4 74 10 148 14 74 3 141 6 148 7 7 1 22 -3 33 -8z m932 -24 c101 -49 155 -145
144 -256 -12 -109 -66 -189 -156 -228 -46 -20 -297 -20 -318 1 -17 17 0 482
19 504 10 13 34 15 133 11 107 -3 128 -7 178 -32z m494 2 c63 -31 72 -47 49
-95 -10 -21 -24 -48 -32 -60 l-14 -22 -50 26 c-46 24 -52 25 -67 11 -17 -18
-20 -15 66 -80 63 -47 84 -90 77 -157 -3 -39 -13 -64 -34 -90 -35 -44 -104
-81 -153 -81 -51 0 -158 35 -192 63 l-29 23 33 67 c18 37 37 67 41 67 4 0 24
-11 44 -25 46 -31 94 -34 94 -5 0 13 -19 31 -54 54 -74 47 -100 87 -100 151 2
82 44 143 121 171 52 20 142 12 200 -18z m-2181 -2 c56 -26 88 -67 99 -129 8
-44 -14 -114 -45 -142 -11 -10 -20 -22 -20 -26 0 -4 25 -36 55 -72 30 -35 55
-70 55 -78 0 -16 -139 -99 -155 -93 -5 3 -35 40 -65 83 l-55 78 -5 -66 -5 -66
-84 -3 c-61 -2 -87 1 -92 10 -5 7 -9 47 -9 89 0 42 -5 147 -11 234 -9 130 -8
160 3 171 17 18 103 31 203 33 65 1 90 -4 131 -23z m327 12 c18 -14 33 -167
39 -393 l3 -110 -89 -9 c-104 -10 -106 -9 -106 77 0 32 -4 113 -10 180 -5 67
-12 145 -14 173 -2 28 -1 57 4 64 5 8 37 16 77 20 37 4 71 8 74 9 3 0 13 -5
22 -11z m708 -45 c18 -27 48 -70 68 -98 l36 -50 5 95 5 95 80 0 80 0 -3 -235
c-3 -271 1 -260 -96 -260 l-61 0 -64 90 c-36 49 -69 86 -73 84 -4 -3 -8 -43
-8 -90 l0 -85 -82 3 -83 3 0 238 c0 200 2 239 15 247 8 5 45 10 82 10 l67 0
32 -47z"/>
<path d="M2575 2145 c-38 -37 -35 -95 6 -129 40 -34 74 -33 110 3 58 59 24
151 -56 151 -25 0 -44 -8 -60 -25z m80 -80 c0 -13 -8 -21 -22 -23 -17 -3 -23
2 -23 16 0 10 3 22 7 26 13 13 38 1 38 -19z"/>
<path d="M2000 2180 c0 -45 2 -50 23 -50 31 0 67 27 67 50 0 27 -27 50 -61 50
-28 0 -29 -1 -29 -50z"/>
<path d="M3486 1399 c-4 -50 -4 -94 -2 -97 3 -3 24 0 46 7 44 13 70 50 70 98
-1 44 -42 83 -88 83 -17 0 -20 -10 -26 -91z"/>
<path d="M1794 1468 c9 -52 10 -54 41 -40 45 21 28 82 -23 82 -23 0 -24 -2
-18 -42z"/>
<path d="M3787 2043 c-14 -13 -7 -33 11 -33 26 0 34 11 21 27 -13 14 -22 16
-32 6z"/>
<path d="M3910 2001 c0 -5 -12 -24 -26 -41 -18 -21 -23 -35 -17 -41 14 -14 53
36 53 67 0 13 -2 24 -5 24 -3 0 -5 -4 -5 -9z"/>
<path d="M3757 1873 c-15 -15 -5 -31 18 -29 28 1 31 6 13 24 -14 14 -22 15
-31 5z"/>
<path d="M3930 1851 c0 -6 4 -13 10 -16 6 -3 7 1 4 9 -7 18 -14 21 -14 7z"/>
<path d="M3925 1780 c-16 -17 -35 -28 -43 -25 -7 3 -23 -2 -35 -10 -33 -23
-118 -20 -151 6 -37 29 -33 6 5 -25 24 -21 41 -26 83 -26 30 0 61 6 73 15 12
8 28 12 36 9 16 -6 67 49 67 72 0 19 -2 18 -35 -16z"/>
<path d="M3006 1047 c-14 -10 -12 -12 14 -14 16 -1 30 2 30 6 0 15 -28 20 -44
8z"/>
<path d="M3108 1023 c7 -3 16 -2 19 1 4 3 -2 6 -13 5 -11 0 -14 -3 -6 -6z"/>
<path d="M3160 975 c-198 -101 -384 -140 -638 -132 -136 4 -187 10 -272 31
-121 31 -178 51 -235 83 -22 13 -53 23 -70 23 -16 0 -44 9 -61 19 -20 12 -36
16 -45 10 -8 -5 -51 -9 -97 -9 -57 0 -81 -3 -77 -11 23 -37 271 -169 406 -217
176 -62 272 -77 499 -77 178 0 219 3 309 23 128 29 251 72 356 124 100 50 268
160 258 169 -5 3 -57 9 -118 12 l-110 5 -105 -53z"/>
<path d="M2050 1010 c-8 -5 -10 -10 -5 -10 6 0 17 5 25 10 8 5 11 10 5 10 -5
0 -17 -5 -25 -10z"/>
<path d="M3098 983 c7 -3 16 -2 19 1 4 3 -2 6 -13 5 -11 0 -14 -3 -6 -6z"/>
</g>
</svg>
