<?xml version="1.0" standalone="no"?>
<!DOCTYPE svg PUBLIC "-//W3C//DTD SVG 20010904//EN"
 "http://www.w3.org/TR/2001/REC-SVG-20010904/DTD/svg10.dtd">
<svg version="1.0" xmlns="http://www.w3.org/2000/svg"
 width="1000.000000pt" height="1000.000000pt" viewBox="0 0 1000.000000 1000.000000"
 preserveAspectRatio="xMidYMid meet">

<g transform="translate(0.000000,1000.000000) scale(0.100000,-0.100000)"
fill="#000000" stroke="none">
<path d="M0 5000 l0 -5000 5000 0 5000 0 0 5000 0 5000 -5000 0 -5000 0 0
-5000z m5475 3681 c831 -112 1572 -477 2155 -1061 593 -593 956 -1340 1067
-2195 25 -198 25 -672 0 -870 -111 -855 -474 -1602 -1067 -2195 -593 -593
-1340 -956 -2195 -1067 -198 -25 -672 -25 -870 0 -855 111 -1602 474 -2195
1067 -593 593 -956 1340 -1067 2195 -25 198 -25 672 0 870 138 1066 680 1982
1537 2595 501 358 1110 594 1720 664 207 24 207 24 495 21 200 -3 309 -9 420
-24z"/>
<path d="M5152 7068 c-22 -35 -60 -61 -103 -71 -35 -9 -116 -82 -151 -136 -33
-53 -35 -88 -13 -225 10 -63 15 -151 13 -267 -2 -173 -2 -175 30 -261 45 -123
44 -202 -3 -344 -19 -58 -44 -156 -55 -217 -12 -62 -37 -177 -56 -257 -50
-209 -49 -229 22 -315 45 -56 58 -115 51 -243 -5 -90 -12 -126 -46 -225 -25
-73 -41 -137 -41 -165 0 -26 11 -134 25 -241 19 -143 25 -239 25 -372 0 -166
1 -180 20 -199 45 -45 100 -15 147 82 40 82 46 122 34 245 -11 124 -3 160 46
203 34 31 40 32 96 27 33 -3 63 -9 68 -14 5 -5 18 -67 30 -138 13 -72 27 -135
32 -142 17 -23 220 150 264 224 24 42 24 44 12 138 -19 154 -9 292 30 400 56
156 62 189 51 290 -12 115 -24 402 -16 394 3 -3 35 -77 71 -165 36 -87 75
-167 86 -176 29 -25 81 -23 114 4 30 23 78 121 114 228 27 80 63 152 79 158
18 6 39 -53 46 -128 34 -346 26 -647 -24 -845 -17 -64 -30 -143 -30 -175 0
-62 55 -515 66 -543 10 -26 32 -20 86 21 31 23 65 62 90 105 40 66 41 69 34
135 -16 162 -17 207 -4 232 13 24 15 24 143 24 115 0 136 -3 177 -23 71 -34
73 -39 73 -170 0 -96 4 -128 24 -186 l24 -69 60 64 c32 36 71 87 85 115 25 49
25 52 18 215 -4 91 -13 244 -21 340 -22 266 -20 368 9 443 38 100 38 97 13
131 -67 87 -79 148 -52 253 21 81 19 124 -14 286 -39 193 -45 301 -30 582 15
261 14 644 -1 740 -13 78 -62 178 -103 207 -30 22 -44 23 -280 31 -233 8 -251
7 -285 -11 -55 -28 -87 -101 -113 -253 -16 -99 -26 -134 -51 -174 -77 -122
-86 -180 -48 -289 23 -65 21 -80 -42 -280 -28 -89 -33 -97 -45 -80 -8 11 -16
30 -19 44 -3 14 -25 99 -49 190 -24 91 -53 222 -64 291 -26 152 -83 401 -104
451 -23 56 -54 70 -174 80 -58 5 -156 20 -219 33 -62 14 -118 25 -123 25 -5 0
-18 -15 -29 -32z m1562 -118 c56 -49 65 -86 54 -220 -5 -63 -6 -302 -3 -530 6
-437 16 -544 67 -760 27 -113 25 -134 -16 -194 -19 -28 -40 -64 -47 -81 -12
-28 -13 -25 -20 55 -4 47 -14 114 -23 150 -18 74 -21 191 -6 271 20 109 27
311 19 535 -8 225 -32 510 -49 589 -11 51 -62 96 -141 127 -33 13 -59 25 -59
28 0 8 135 51 182 59 4 0 23 -13 42 -29z m-1189 -29 c38 -8 75 -62 75 -111 0
-57 78 -445 106 -528 14 -41 24 -81 22 -90 -3 -15 -20 34 -138 408 -56 174
-83 220 -132 220 -13 0 -43 11 -68 25 -25 14 -61 33 -80 42 l-35 17 70 11 c79
14 136 16 180 6z m762 -1086 c-6 -16 -38 -60 -73 -97 -71 -76 -116 -148 -163
-263 -51 -123 -104 -222 -109 -203 -2 9 10 48 27 85 28 64 100 274 115 337 8
32 80 147 115 184 23 23 30 41 52 122 l12 45 17 -90 c13 -67 15 -97 7 -120z
m-781 -612 c-4 -76 -1 -164 8 -248 15 -148 10 -211 -27 -330 -14 -44 -32 -118
-39 -165 l-13 -85 -6 65 c-3 36 -4 110 -1 165 3 69 -1 134 -13 207 -16 100
-16 113 -1 202 9 52 30 135 47 183 17 48 33 96 36 106 13 41 15 10 9 -100z
m429 -3 c-9 -16 -17 -30 -19 -30 -3 0 1 14 7 30 6 17 15 30 19 30 5 0 2 -13
-7 -30z m881 -216 c56 -83 60 -107 34 -212 -11 -48 -26 -141 -33 -207 l-12
-120 -14 170 c-11 149 -17 179 -43 240 -28 68 -29 72 -19 148 13 94 21 111 34
72 6 -16 29 -57 53 -91z"/>
<path d="M3742 6989 c-240 -31 -455 -184 -680 -484 -101 -135 -149 -226 -196
-374 -104 -324 -128 -549 -86 -826 27 -180 26 -257 -5 -350 -28 -83 -27 -120
6 -174 23 -38 81 -65 121 -57 37 7 47 -13 58 -120 9 -90 36 -160 90 -239 43
-62 47 -99 20 -186 -35 -118 -37 -167 -7 -230 14 -30 32 -71 40 -91 20 -48 60
-88 88 -88 29 0 73 33 98 74 18 28 21 50 21 144 0 164 18 193 88 142 55 -40
91 -57 137 -64 22 -4 191 -9 376 -11 381 -4 369 -2 465 -88 l49 -45 0 -120 c1
-121 1 -121 40 -199 48 -93 79 -117 122 -93 15 8 36 30 47 49 17 30 20 57 24
270 3 193 8 260 28 370 13 74 24 151 24 171 0 56 -35 147 -90 230 -41 63 -51
87 -61 150 -21 135 -11 181 74 353 82 166 119 270 143 411 32 180 1 422 -74
589 l-31 67 23 27 c36 44 45 82 34 149 -12 72 -6 111 28 194 41 101 19 180
-53 195 -37 8 -99 39 -149 75 -57 41 -345 169 -407 180 -59 12 -315 11 -405
-1z m448 -104 c59 -16 206 -72 320 -123 28 -12 65 -43 98 -80 50 -58 52 -63
52 -120 0 -93 -12 -212 -21 -212 -5 0 -9 26 -9 58 0 31 -3 80 -6 109 -6 48 -9
53 -40 63 -52 17 -92 61 -100 108 -3 22 -16 50 -28 60 -68 63 -436 151 -576
137 -123 -11 -225 -26 -252 -37 -15 -5 -33 -8 -40 -6 -15 5 95 43 167 57 77
15 358 6 435 -14z m277 -282 c34 -37 65 -107 59 -135 -3 -13 -7 -35 -10 -49
-3 -14 -33 -58 -66 -98 -76 -91 -85 -109 -100 -202 -12 -77 -11 -98 10 -218 9
-48 9 -75 1 -102 -19 -62 -36 -56 -62 21 -21 66 -22 74 -9 157 14 93 46 221
60 238 4 5 20 40 35 76 l26 67 -25 27 c-63 67 -70 163 -16 217 36 35 64 36 97
1z m-396 -309 c70 -20 95 -41 110 -97 15 -52 15 -218 0 -274 -6 -24 -16 -61
-21 -83 l-11 -39 -31 19 c-76 46 -171 29 -246 -43 -170 -163 -94 -514 118
-543 100 -14 187 41 242 153 28 57 32 76 32 148 l1 83 33 -5 c29 -5 37 -1 72
37 72 78 84 135 55 255 -19 78 -19 121 0 176 22 64 86 99 115 64 7 -8 25 -15
40 -15 26 0 30 -5 48 -62 75 -234 79 -483 13 -686 -39 -117 -147 -331 -202
-397 -40 -48 -44 -50 -106 -58 -56 -6 -81 -17 -176 -74 -222 -133 -275 -135
-427 -15 -43 35 -96 69 -117 76 -37 13 -38 14 -44 74 -5 48 -14 72 -43 115
-52 75 -71 165 -71 332 0 109 4 141 23 196 18 54 23 93 25 200 3 111 7 144 26
191 19 50 29 62 81 93 33 20 82 61 109 91 69 78 124 104 220 104 41 0 101 -7
132 -16z m74 -560 c8 -4 22 -19 30 -35 41 -79 -13 -147 -91 -114 -55 23 -68
91 -27 138 16 17 57 22 88 11z m-735 -714 c20 -20 20 -61 0 -84 -12 -12 -59
25 -66 51 -14 52 27 72 66 33z m1041 -274 c25 -83 70 -176 110 -228 29 -36 79
-138 79 -161 0 -6 -15 11 -34 38 -40 59 -53 68 -126 85 -30 7 -71 21 -91 31
-40 20 -116 108 -125 144 -6 26 13 69 63 137 58 79 90 67 124 -46z m-823 68
c12 -8 22 -25 22 -37 0 -12 9 -37 21 -56 27 -45 19 -49 -24 -12 -19 17 -41 31
-49 31 -26 0 -51 37 -44 65 7 29 39 34 74 9z m-204 -268 c65 -60 44 -112 -59
-152 -67 -25 -101 -88 -120 -221 -4 -24 -11 -46 -17 -49 -7 -5 -9 29 -6 107 4
107 6 118 40 184 20 39 44 89 54 112 15 38 27 49 61 52 6 0 28 -14 47 -33z
m880 -91 c52 -22 114 -81 140 -134 27 -53 50 -120 44 -127 -3 -2 -19 16 -37
41 -34 47 -132 116 -215 152 -63 26 -79 48 -52 69 26 18 74 18 120 -1z"/>
<path d="M2912 3443 c-62 -30 -67 -47 -67 -243 0 -151 2 -180 18 -203 38 -59
149 -75 223 -32 48 28 64 62 64 136 l0 49 -65 0 -65 0 0 -55 c0 -42 -4 -57
-16 -62 -28 -10 -34 18 -34 159 0 148 10 199 35 178 10 -9 15 -32 15 -76 l0
-64 65 0 65 0 0 63 c0 77 -23 126 -70 149 -44 22 -124 23 -168 1z"/>
<path d="M4840 3200 l0 -250 55 0 55 0 0 142 c0 78 2 139 4 137 2 -2 11 -56
20 -119 24 -170 20 -160 65 -160 45 0 44 -4 62 150 6 52 13 97 15 99 2 2 4
-53 4 -122 l0 -127 60 0 60 0 0 250 0 250 -84 0 c-96 0 -89 7 -102 -110 -7
-70 -23 -116 -24 -68 0 15 -5 61 -11 103 l-11 75 -84 0 -84 0 0 -250z"/>
<path d="M6250 3385 c0 -24 -4 -35 -15 -35 -10 0 -15 -10 -15 -30 0 -18 6 -33
15 -36 12 -5 15 -31 15 -148 0 -175 2 -178 94 -184 l66 -4 0 36 c0 25 -4 36
-15 36 -13 0 -15 21 -15 129 0 105 3 130 15 135 20 7 20 66 1 66 -9 0 -16 12
-18 33 -3 32 -3 32 -65 35 l-63 3 0 -36z"/>
<path d="M3339 3343 c-30 -25 -31 -26 -25 -5 7 21 5 22 -58 22 l-66 0 0 -205
0 -205 65 0 64 0 3 128 3 127 33 10 32 9 0 73 c0 40 -4 73 -9 73 -5 0 -24 -12
-42 -27z"/>
<path d="M3494 3360 c-47 -15 -74 -50 -81 -108 l-6 -52 62 0 61 0 0 46 c0 38
3 45 17 42 20 -4 28 -29 19 -61 -4 -16 -25 -31 -71 -51 -72 -31 -85 -49 -85
-115 0 -67 17 -99 60 -112 31 -9 44 -9 69 4 17 8 31 11 31 6 0 -5 29 -9 64 -9
l63 0 2 78 c1 42 -1 122 -5 176 -6 87 -10 102 -33 128 -21 24 -36 30 -81 33
-30 2 -69 0 -86 -5z m67 -333 c-31 -31 -43 52 -13 93 l17 25 3 -54 c2 -30 -1
-58 -7 -64z"/>
<path d="M5380 3363 c-39 -12 -63 -29 -75 -53 -19 -37 -28 -141 -20 -228 6
-64 11 -80 34 -103 59 -58 183 -47 228 20 21 31 23 45 23 162 0 122 -1 129
-26 158 -34 40 -112 62 -164 44z m60 -209 c0 -104 -3 -135 -12 -132 -9 3 -14
39 -16 123 -3 122 0 145 18 145 6 0 10 -49 10 -136z"/>
<path d="M5768 3356 c-16 -8 -28 -11 -28 -5 0 5 -29 9 -65 9 l-65 0 0 -205 0
-205 65 0 65 0 0 170 c0 144 2 170 15 170 13 0 15 -26 15 -170 l0 -170 66 0
65 0 -3 186 -3 186 -28 24 c-32 27 -60 30 -99 10z"/>
<path d="M5995 3356 c-17 -7 -35 -19 -41 -27 -20 -24 -26 -76 -14 -119 9 -33
20 -47 58 -70 85 -52 92 -59 92 -91 0 -42 -34 -37 -38 6 -5 37 -9 40 -64 40
l-43 0 -3 -43 c-3 -36 1 -47 26 -71 51 -52 171 -52 217 -1 10 11 20 41 23 68
6 71 -14 104 -90 144 -55 29 -63 37 -66 66 -4 43 26 45 35 2 5 -29 8 -30 59
-30 l54 0 0 34 c0 81 -113 132 -205 92z"/>
<path d="M6500 3353 c-56 -29 -70 -69 -70 -201 0 -159 25 -198 133 -208 93 -9
157 48 157 139 l0 37 -59 0 -60 0 -3 -47 c-2 -36 -7 -49 -20 -51 -16 -3 -18 5
-18 62 l0 66 81 0 82 0 -5 63 c-3 34 -11 74 -18 88 -26 57 -135 86 -200 52z
m88 -100 c-2 -21 -7 -38 -13 -38 -5 0 -11 17 -13 38 -3 29 0 37 13 37 13 0 16
-8 13 -37z"/>
<path d="M6906 3349 c-21 -17 -26 -18 -26 -5 0 13 -13 16 -65 16 l-65 0 0
-205 0 -205 65 0 65 0 0 119 c0 127 8 151 51 151 17 0 19 8 19 75 0 41 -4 75
-9 75 -4 0 -20 -9 -35 -21z"/>
<path d="M7030 3352 c-40 -20 -60 -53 -60 -100 0 -53 24 -86 95 -130 57 -36
65 -45 65 -72 0 -23 -4 -30 -20 -30 -16 0 -20 7 -20 34 0 25 -5 36 -17 39 -21
6 -91 2 -99 -5 -9 -10 14 -89 32 -109 19 -21 73 -39 117 -39 46 0 103 35 116
71 28 80 6 130 -79 178 -57 32 -65 41 -68 69 -2 23 1 32 12 32 9 0 16 -11 18
-27 3 -27 6 -28 61 -31 l57 -3 0 34 c0 86 -118 136 -210 89z"/>
<path d="M3730 3320 l0 -40 40 0 c22 0 40 -2 40 -5 0 -3 -20 -56 -45 -117 -32
-79 -45 -127 -45 -160 l0 -48 105 0 105 0 0 40 0 40 -40 0 c-25 0 -40 5 -40
13 0 6 18 58 40 115 27 70 40 118 40 152 l0 50 -100 0 -100 0 0 -40z"/>
<path d="M3960 3320 l0 -40 44 0 44 0 -49 -125 c-30 -75 -49 -141 -49 -165 l0
-40 110 0 110 0 0 40 c0 40 0 40 -39 40 -22 0 -42 4 -45 8 -2 4 15 58 40 121
28 73 44 128 44 157 l0 44 -105 0 -105 0 0 -40z"/>
<path d="M4200 3320 l0 -40 41 0 c35 0 40 -3 34 -17 -65 -166 -85 -229 -85
-268 l0 -45 105 0 105 0 0 40 0 40 -40 0 c-25 0 -40 5 -40 13 0 6 18 58 40
115 27 70 40 118 40 152 l0 50 -100 0 -100 0 0 -40z"/>
<path d="M4420 3347 c0 -8 16 -92 35 -188 19 -95 33 -179 30 -186 -2 -7 -11
-13 -20 -13 -11 0 -15 -10 -15 -35 l0 -35 60 0 c82 0 125 19 138 62 11 32 52
341 52 386 0 20 -5 22 -54 22 l-53 0 -7 -37 c-3 -21 -6 -67 -6 -103 0 -102
-15 -101 -29 3 -20 146 -15 137 -77 137 -38 0 -54 -4 -54 -13z"/>
</g>
</svg>
